HIERARCHY
ROOT hip
{
  OFFSET 0 0 0
  CHANNELS 6 Xposition Yposition Zposition Zrotation Yrotation Xrotation
  JOINT abdomen
  {
    OFFSET 0 20.6881 -0.73152
    CHANNELS 3 Zrotation Xrotation Yrotation
    JOINT chest
    {
      OFFSET 0 11.7043 -0.48768
      CHANNELS 3 Zrotation Xrotation Yrotation
      JOINT neck
      {
        OFFSET 0 22.1894 -2.19456
        CHANNELS 3 Zrotation Xrotation Yrotation
        JOINT head
        {
          OFFSET -0.24384 7.07133 1.2192
          CHANNELS 3 Zrotation Xrotation Yrotation
          JOINT leftEye
          {
            OFFSET 4.14528 8.04674 8.04672
            CHANNELS 3 Zrotation Xrotation Yrotation
            End Site
            {
              OFFSET 1 0 0
            }
          }
          JOINT rightEye
          {
            OFFSET -3.6576 8.04674 8.04672
            CHANNELS 3 Zrotation Xrotation Yrotation
            End Site
            {
              OFFSET 1 0 0
            }
          }
        }
      }
      JOINT rCollar
      {
        OFFSET -2.68224 19.2634 -4.8768
        CHANNELS 3 Zrotation Xrotation Yrotation
        JOINT rShldr
        {
          OFFSET -8.77824 -1.95073 1.46304
          CHANNELS 3 Zrotation Xrotation Yrotation
          JOINT rForeArm
          {
            OFFSET -28.1742 -1.7115 0.48768
            CHANNELS 3 Zrotation Xrotation Yrotation
            JOINT rHand
            {
              OFFSET -22.5879 0.773209 7.07136
              CHANNELS 3 Zrotation Xrotation Yrotation
              JOINT rThumb1
              {
                OFFSET -1.2192 -0.487915 3.41376
                CHANNELS 3 Zrotation Xrotation Yrotation
                JOINT rThumb2
                {
                  OFFSET -3.37035 -0.52449 3.41376
                  CHANNELS 3 Zrotation Xrotation Yrotation
                  End Site
                  {
                    OFFSET -1.78271 -1.18214 1.43049
                  }
                }
              }
              JOINT rIndex1
              {
                OFFSET -7.75947 0.938293 5.60832
                CHANNELS 3 Zrotation Xrotation Yrotation
                JOINT rIndex2
                {
                  OFFSET -2.54057 -0.884171 1.56538
                  CHANNELS 3 Zrotation Xrotation Yrotation
                  End Site
                  {
                    OFFSET -1.62519 -0.234802 1.16502
                  }
                }
              }
              JOINT rMid1
              {
                OFFSET -8.24714 1.18213 3.41376
                CHANNELS 3 Zrotation Xrotation Yrotation
                JOINT rMid2
                {
                  OFFSET -3.10165 -0.590103 1.0647
                  CHANNELS 3 Zrotation Xrotation Yrotation
                  End Site
                  {
                    OFFSET -2.48547 -0.328903 0.83742
                  }
                }
              }
              JOINT rRing1
              {
                OFFSET -8.82822 0.546677 1.51678
                CHANNELS 3 Zrotation Xrotation Yrotation
                JOINT rRing2
                {
                  OFFSET -2.60934 -0.819778 -0.0198488
                  CHANNELS 3 Zrotation Xrotation Yrotation
                  End Site
                  {
                    OFFSET -2.33842 -0.294052 0.168128
                  }
                }
              }
              JOINT rPinky1
              {
                OFFSET -8.27202 -0.0477905 -0.4584
                CHANNELS 3 Zrotation Xrotation Yrotation
                JOINT rPinky2
                {
                  OFFSET -1.82734 -0.647385 -0.700984
                  CHANNELS 3 Zrotation Xrotation Yrotation
                  End Site
                  {
                    OFFSET -1.69225 -0.51767 -0.607171
                  }
                }
              }
            }
          }
        }
      }
      JOINT lCollar
      {
        OFFSET 2.68224 19.2634 -4.8768
        CHANNELS 3 Zrotation Xrotation Yrotation
        JOINT lShldr
        {
          OFFSET 8.77824 -1.95073 1.46304
          CHANNELS 3 Zrotation Xrotation Yrotation
          JOINT lForeArm
          {
            OFFSET 28.1742 -1.7115 0.48768
            CHANNELS 3 Zrotation Xrotation Yrotation
            JOINT lHand
            {
              OFFSET 22.5879 0.773209 7.07136
              CHANNELS 3 Zrotation Xrotation Yrotation
              JOINT lThumb1
              {
                OFFSET 1.2192 -0.487915 3.41376
                CHANNELS 3 Zrotation Xrotation Yrotation
                JOINT lThumb2
                {
                  OFFSET 3.37035 -0.52449 3.41376
                  CHANNELS 3 Zrotation Xrotation Yrotation
                  End Site
                  {
                    OFFSET 1.78271 -1.18214 1.43049
                  }
                }
              }
              JOINT lIndex1
              {
                OFFSET 7.75947 0.938293 5.60832
                CHANNELS 3 Zrotation Xrotation Yrotation
                JOINT lIndex2
                {
                  OFFSET 2.54057 -0.884171 1.56538
                  CHANNELS 3 Zrotation Xrotation Yrotation
                  End Site
                  {
                    OFFSET 1.62519 -0.234802 1.16502
                  }
                }
              }
              JOINT lMid1
              {
                OFFSET 8.24714 1.18213 3.41376
                CHANNELS 3 Zrotation Xrotation Yrotation
                JOINT lMid2
                {
                  OFFSET 3.10165 -0.590103 1.0647
                  CHANNELS 3 Zrotation Xrotation Yrotation
                  End Site
                  {
                    OFFSET 2.48547 -0.328903 0.83742
                  }
                }
              }
              JOINT lRing1
              {
                OFFSET 8.82822 0.546677 1.51678
                CHANNELS 3 Zrotation Xrotation Yrotation
                JOINT lRing2
                {
                  OFFSET 2.60934 -0.819778 -0.0198488
                  CHANNELS 3 Zrotation Xrotation Yrotation
                  End Site
                  {
                    OFFSET 2.33842 -0.294052 0.168128
                  }
                }
              }
              JOINT lPinky1
              {
                OFFSET 8.27202 -0.0477905 -0.4584
                CHANNELS 3 Zrotation Xrotation Yrotation
                JOINT lPinky2
                {
                  OFFSET 1.82734 -0.647385 -0.700984
                  CHANNELS 3 Zrotation Xrotation Yrotation
                  End Site
                  {
                    OFFSET 1.69225 -0.51767 -0.607171
                  }
                }
              }
            }
          }
        }
      }
    }
  }
  JOINT rButtock
  {
    OFFSET -8.77824 4.35084 1.2192
    CHANNELS 3 Zrotation Xrotation Yrotation
    JOINT rThigh
    {
      OFFSET 0 -1.70687 -2.19456
      CHANNELS 3 Zrotation Xrotation Yrotation
      JOINT rShin
      {
        OFFSET 0 -36.8199 0.73152
        CHANNELS 3 Zrotation Xrotation Yrotation
        JOINT rFoot
        {
          OFFSET 0.73152 -45.1104 -5.12064
          CHANNELS 3 Zrotation Xrotation Yrotation
          End Site
          {
            OFFSET -1.1221 -3.69964 12.103
          }
        }
      }
    }
  }
  JOINT lButtock
  {
    OFFSET 8.77824 4.35084 1.2192
    CHANNELS 3 Zrotation Xrotation Yrotation
    JOINT lThigh
    {
      OFFSET 0 -1.70687 -2.19456
      CHANNELS 3 Zrotation Xrotation Yrotation
      JOINT lShin
      {
        OFFSET 0 -36.8199 0.73152
        CHANNELS 3 Zrotation Xrotation Yrotation
        JOINT lFoot
        {
          OFFSET -0.73152 -45.1104 -5.12064
          CHANNELS 3 Zrotation Xrotation Yrotation
          End Site
          {
            OFFSET 1.1221 -3.69964 12.103
          }
        }
      }
    }
  }
}
MOTION
Frames:	7
Frame Time:	0.00833333
19.015549 1.063797 -19.473614 -3.907759 17.791567 11.264182 1.953785 18.80824 -0.499902 4.200066 -13.386454 0.543366 -7.731473 13.031755 -5.566709 12.298228 -33.73211 -7.073837 -0.234148 -0.245956 0.211189 0.106525 -0.308185 -0.081082 -0.343985 -0.136208 0.08343 24.999968 10.926093 58.944103 -16.603636 -9.292421 30.854027 -0.735541 -3.418433 -0.833468 -0.205265 -0.187175 -0.247484 -0.329895 0.356569 -0.045688 -0.31836 0.034737 0.350287 8.049066 5.764716 0.600191 0.020004 0.378468 -0.407766 2.817308 1.162468 -0.000575 -0.103136 0.090162 -0.010215 10.570264 0.658936 0.251958 -0.233037 -0.225798 -0.256124 2.042447 -0.398023 -0.000352 0.178157 0.32256 -0.058155 11.571584 9.556935 -117.86493 27.244364 -41.38565 -87.66242 1.173322 -10.078794 2.250862 -0.073054 0.043586 -0.065024 -0.070682 0.073664 0.056919 -0.152133 -0.082877 -0.44856 -7.93148 5.523082 -0.456811 -0.110094 0.047085 -0.273414 -3.103132 0.852367 -0.374342 -0.211087 0.199151 0.066902 -10.526684 0.692817 0.157355 -0.016035 -0.031308 0.153341 -2.09063 -0.591796 -0.065451 -0.093785 0.243152 0.41312 -13.789575 -54.177746 -27.930872 -1.44965 77.403336 4.339258 -11.103204 -17.232386 -24.824644 0.108283 0.163196 0.09951 13.99175 -35.510227 11.804541 175.52219 72.85722 -177.78151 2.100068 -6.28214 10.417798
18.610558 0.798823 -19.799913 -4.61989 15.679942 11.185053 2.612024 19.127382 -0.279444 4.037701 -13.217997 0.602216 -7.679226 12.439464 -5.143732 12.28537 -32.600704 -5.69889 0.036388 -0.058765 0.178749 -0.002703 -0.114997 -0.111428 -0.14651 -0.323812 -0.003676 20.417463 12.320801 62.60309 -16.916788 -9.580742 31.75154 -0.616846 -3.770313 -1.561393 -0.114532 -0.135013 -0.405323 -0.351439 0.130131 -0.081907 -0.407961 -0.148082 0.346794 8.030148 5.7506 0.368287 -0.063956 0.259056 -0.457667 2.682453 1.25887 -0.071479 -0.264106 -0.066289 -0.027143 10.607001 0.550874 0.217506 -0.291818 -0.223154 -0.105327 2.090747 -0.62688 0.02746 0.248488 0.241573 0.044049 13.349361 5.27134 -120.30099 26.412815 -43.731033 -91.90543 1.107536 -6.281004 2.302106 -0.227009 -0.100961 -0.107167 -0.113483 0.016701 0.144758 -0.104659 -0.079493 -0.271731 -7.806438 5.320599 -0.483765 0.086586 0.141057 -0.293945 -3.25778 0.832536 -0.399092 -0.255311 0.36129 0.180359 -10.35544 0.641942 0.216329 -0.14918 0.059432 0.069088 -2.073122 -0.378661 -0.081758 -0.158416 0.309215 0.466066 -10.248536 -51.839554 -24.885592 -1.121285 77.15012 4.582197 -11.778109 -18.6893 -25.053057 -0.005019 0.126264 0.095672 12.913111 -42.780735 14.330538 176.21364 70.67014 -177.13446 2.741246 -7.16429 11.613018
18.1503 0.484022 -19.982508 -5.988241 12.703542 10.825658 3.06155 19.747171 0.240493 3.571478 -13.224237 0.912315 -7.616202 11.713503 -4.82216 11.794195 -31.290098 -4.767966 0.13147 0.08552 0.133748 -0.044951 -0.001641 -0.065196 -0.014308 -0.475055 0.082215 14.42202 14.765272 65.93759 -17.57397 -10.161791 33.27204 -0.550356 -3.084118 -1.532813 -0.001618 -0.134388 -0.410203 -0.308271 -0.162069 -0.187811 -0.41115 -0.022402 0.313082 7.935417 5.75761 0.13128 -0.052835 0.05427 -0.251593 2.718137 1.207507 -0.039787 -0.370407 -0.013142 -0.104865 10.553402 0.516189 0.304905 -0.210006 -0.329855 -0.01094 2.203262 -0.692151 0.031808 0.234152 0.122542 0.073903 13.141123 1.963977 -120.159966 25.516644 -45.914482 -95.40636 1.007696 -3.883478 1.775476 -0.307461 -0.314586 -0.091607 -0.223748 0.076919 0.265414 0.055592 -0.078363 -0.068633 -7.700695 5.14835 -0.400886 0.12552 0.118244 -0.170617 -3.448456 0.786192 -0.386496 -0.184835 0.435286 0.198383 -10.409628 0.747814 0.03045 -0.262893 0.18782 -0.050664 -1.975645 -0.322431 -0.001971 -0.162885 0.274588 0.380392 -7.594918 -49.47146 -22.161947 -1.455758 76.74159 4.549199 -12.111794 -20.135511 -24.774555 0.004386 0.049931 0.121383 12.512482 -50.002377 16.833336 175.69148 70.46436 -175.74097 3.062763 -8.038464 11.256341
17.851475 0.580015 -20.116661 -6.603542 8.391741 10.099077 3.207802 20.605421 1.473654 3.051944 -13.606819 1.249899 -7.212016 11.084908 -3.804775 10.574765 -29.937874 -3.590482 0.146625 0.146722 0.110621 -0.021849 0.017172 -0.0101 -0.034011 -0.459689 0.281219 7.496284 18.10817 69.59454 -18.78593 -11.685962 35.924683 -0.194698 -1.98426 -0.657117 -0.005344 -0.111789 -0.289176 -0.285345 -0.410141 -0.287713 -0.31878 0.245137 0.298576 7.780008 5.700838 0.016445 -0.037475 -0.139863 -0.049823 2.718179 1.110137 0.034055 -0.448388 0.102908 -0.249224 10.447933 0.561032 0.404961 -0.099385 -0.356839 -0.107166 2.253026 -0.619315 0.06982 0.227783 -0.020874 -0.03013 12.460294 0.753021 -118.350586 24.473087 -47.758183 -98.69406 0.717156 -0.488125 0.652496 -0.161635 -0.376763 -0.229727 -0.313277 0.251636 0.47538 0.199171 -0.149076 0.081392 -7.832284 5.134809 -0.251054 0.065581 0.012349 -0.017397 -3.50401 0.709568 -0.296688 -0.118503 0.437062 0.067626 -10.520412 0.910334 -0.160461 -0.266094 0.195008 -0.227749 -2.0532 -0.441559 0.133853 -0.098578 0.204437 0.231207 -5.058879 -46.667816 -18.81106 -1.032248 76.733696 3.463077 -12.536182 -21.936863 -24.30495 0.149041 -0.011216 0.216055 12.453941 -57.375893 19.645178 174.14977 71.87475 -174.14601 3.617902 -9.101217 10.233454
17.801313 1.123357 -20.41335 -7.01538 4.244214 9.504709 3.173616 21.316448 3.064134 2.805385 -14.152868 1.458029 -6.872004 10.821568 -2.461772 9.26292 -28.67554 -2.377523 0.260532 0.123096 -0.018176 0.060801 0.009836 -0.034258 -0.152961 -0.285496 0.499773 0.519924 21.49463 73.3707 -20.294624 -14.334381 39.824833 -0.439157 0.20963 -0.063899 -0.06796 0.004581 -0.101492 -0.296603 -0.531698 -0.483235 -0.164186 0.50516 0.344744 7.606626 5.539632 0.072138 -0.01547 -0.191165 -0.03656 2.781086 1.057038 -0.034392 -0.384551 0.13942 -0.219777 10.466565 0.69424 0.359989 -0.047027 -0.274572 -0.231862 2.308665 -0.619572 0.09421 0.196461 -0.087887 -0.096243 12.232447 3.114973 -115.523186 23.91219 -49.102898 -101.83704 0.346502 3.370338 -0.002126 0.018716 -0.246793 -0.358519 -0.213633 0.297804 0.633441 0.171456 -0.145468 0.078661 -7.979534 5.19878 -0.331922 0.096097 -0.089251 0.02909 -3.312764 0.614626 -0.181046 -0.106716 0.357804 -0.056842 -10.668049 1.032434 -0.137398 -0.382273 0.161041 -0.365316 -2.268806 -0.688761 0.213961 0.126358 0.108193 0.106377 -3.063992 -44.065872 -15.434696 -1.297979 77.08894 3.720343 -13.02569 -23.824223 -23.69578 0.046614 0.048807 0.265602 14.184401 -63.564762 23.862238 173.51352 74.526054 -173.52629 4.243766 -9.572206 10.042939
18.1066 1.326364 -21.149437 -7.80421 0.205381 9.298345 3.397573 21.52959 4.634542 2.835147 -14.626618 1.513558 -6.673674 10.692404 -1.484704 8.047923 -27.133257 -1.410961 0.398478 -0.131106 -0.211289 0.085109 0.010951 -0.184735 -0.193269 -0.130818 0.593215 -4.817028 24.456694 76.64456 -21.84339 -17.304052 44.272717 -1.004498 3.7372 -0.106662 -0.191299 0.219605 0.001011 -0.25526 -0.50642 -0.629041 -0.067913 0.600821 0.493818 7.561093 5.523649 0.263052 0.030583 -0.19361 -0.179138 2.904861 1.126285 -0.351526 -0.224152 0.030534 -0.069427 10.429752 0.848868 0.259579 -0.036937 -0.164 -0.20326 2.411265 -0.775426 0.079199 0.091953 0.006055 -0.067821 12.185772 8.667768 -111.197365 23.736744 -49.846092 -104.31281 -0.516768 6.283391 0.167341 0.049052 -0.035288 -0.490317 0.038279 0.19696 0.507445 0.116332 -0.050908 0.028287 -7.929333 5.392286 -0.535974 0.139238 -0.218883 0.02986 -3.073843 0.562177 -0.155682 -0.189303 0.187173 -0.117732 -10.581735 0.917039 0.168697 -0.679765 0.099642 -0.436725 -2.283738 -0.89652 0.174985 0.36922 -0.047598 -0.073364 -1.473746 -41.370293 -11.987365 -1.151876 77.025536 4.378334 -12.875836 -25.754951 -23.043697 -0.121143 0.247893 0.210598 18.870958 -68.251785 29.715872 171.50246 78.975685 -170.93118 4.186699 -8.850727 11.131093
18.569542 1.021222 -22.152496 -8.956413 -4.873886 8.958426 3.385231 20.63137 6.461972 2.366792 -14.894659 1.771264 -5.923705 10.463015 -0.862839 7.130252 -25.266495 0.042146 0.327152 -0.482401 -0.123013 -0.060436 -0.005663 -0.390703 0.010312 -0.144356 0.367552 -8.796798 26.130333 79.74315 -23.704939 -19.880747 49.16886 -0.69653 7.075992 0.892116 -0.349718 0.278329 0.078973 -0.122377 -0.346363 -0.683484 -0.254064 0.364718 0.541702 7.631026 5.72162 0.442344 0.109761 -0.092403 -0.438417 2.781927 1.305541 -0.814333 -0.202505 -0.147634 0.015059 10.307324 0.892645 0.327217 -0.208273 0.006922 -0.128337 2.410527 -1.043773 -0.000177 0.068193 0.28765 0.164008 10.498277 15.148392 -104.94338 23.249107 -50.03057 -105.19972 -0.647989 4.991975 0.496681 -0.040607 -0.004646 -0.501318 0.10688 0.306563 0.138916 0.048204 -0.055117 -0.08753 -7.675642 5.617503 -0.525522 -0.052568 -0.285255 -0.02702 -2.793806 0.501485 -0.155938 -0.389248 -0.013985 -0.149836 -10.18596 0.534016 0.450065 -0.797707 -0.011246 -0.295227 -2.034351 -0.98517 0.004583 0.355435 -0.090944 -0.026821 -0.011293 -38.160755 -8.247808 0.14161 75.93112 4.522238 -11.823724 -27.819557 -22.137556 -0.192238 0.503041 0.243125 27.637342 -71.10905 36.58199 161.2653 84.9641 -161.59555 3.573594 -6.773322 11.961095
